<svg width="188" height="42" viewBox="0 0 188 42" fill="none" xmlns="http://www.w3.org/2000/svg">
<path fill-rule="evenodd" clip-rule="evenodd" d="M0.735345 0.921821C5.4265 6.67888 10.5773 13.9115 11.4104 15.0813C11.4548 15.1437 11.4869 15.1888 11.5061 15.2156C11.9502 15.8363 12.3168 16.2976 12.5952 16.648L12.5953 16.6481C13.2134 17.4259 13.3968 17.6567 13.028 17.8687C12.7305 18.0397 12.4236 18.096 12.1174 18.096C11.771 18.096 11.3808 17.9274 11.0966 17.6549C10.8958 17.4623 9.52159 15.4442 7.65032 12.5084C6.21854 10.262 5.02031 8.39849 4.98762 8.36729C4.91205 8.29513 4.91334 8.29758 7.50434 12.9851C9.13125 15.9286 10.2441 18.1038 10.2441 18.2429C10.2441 18.526 10.1677 18.6748 9.82239 19.0643C9.24669 19.7138 8.98932 20.4434 8.80355 21.9535C8.59529 23.6463 8.00965 24.8422 6.38667 26.8887C5.43663 28.0868 5.28118 28.3063 5.04146 28.7893C4.73952 29.3973 4.65648 29.7379 4.62283 30.5057C4.58727 31.3177 4.65654 31.8421 4.90184 32.6182C5.1166 33.2977 5.34075 33.7466 5.91381 34.6441C6.40836 35.4184 6.69312 35.994 6.69312 36.2192C6.69312 36.3984 6.72694 36.3986 7.49328 36.2237C9.32723 35.8048 10.8164 35.0685 11.6539 34.1659C12.1723 33.6072 12.294 33.2987 12.2979 32.5332C12.3005 32.0325 12.2831 31.9277 12.1492 31.6396C11.9313 31.1706 11.5346 30.7809 10.6603 30.1765C9.51465 29.3846 9.02534 28.7472 8.89018 27.8704C8.77931 27.1511 8.90794 26.6435 9.5417 25.3005C10.1977 23.9103 10.3602 23.3179 10.4702 21.9165C10.5412 21.0112 10.6396 20.6542 10.8968 20.3676C11.1651 20.0688 11.4067 19.9676 12.0706 19.8757C13.1531 19.7263 13.8424 19.4431 14.409 18.9152C14.9005 18.4572 15.1062 18.0159 15.1377 17.3517L15.1617 16.8481L14.887 16.5244C13.8923 15.3517 0.0692203 0 0.00800799 0C-0.00506871 0 0.322246 0.414847 0.735345 0.921821ZM7.25149 31.4244C7.47638 31.0216 7.35689 30.504 6.9807 30.251C6.62526 30.012 6.07311 30.1247 6.07311 30.436C6.07311 30.531 6.12507 30.6001 6.24221 30.6612C6.43943 30.7638 6.45375 30.8792 6.29857 31.115C6.14143 31.3539 6.1541 31.5638 6.33435 31.7064C6.62486 31.9365 7.0361 31.81 7.25149 31.4244ZM14.0206 9.46355C13.5768 9.39395 13.5581 9.38578 13.7669 9.35333C14.1671 9.2911 15.1121 9.37591 15.7633 9.53248C17.2835 9.89785 18.6668 10.8339 20.1434 12.4962L20.5356 12.9378L21.0969 12.8466C23.4611 12.4624 25.8661 12.7677 27.8778 13.7074C28.4312 13.9659 29.3037 14.4805 29.4127 14.6127C29.4473 14.6548 29.5113 14.9261 29.5543 15.2156C29.7038 16.2171 29.6291 16.9847 29.326 17.558C29.1613 17.87 29.1521 17.9689 29.2628 18.2359C29.3513 18.449 29.598 18.6067 29.8423 18.6064C30.3421 18.6057 30.8801 17.7886 31.1295 16.6516L31.2285 16.2L31.4247 16.4247C32.5007 17.6575 33.346 19.3387 33.4912 20.5353L33.5289 20.8472L33.3482 20.5637C33.0367 20.0757 32.7241 19.7433 32.3235 19.4754C31.6016 18.9923 30.8381 18.8279 28.8164 18.7202C26.9904 18.6229 25.9571 18.4652 24.9324 18.1274C23.1887 17.5526 22.31 16.7871 20.2388 14.0397C19.319 12.8194 18.7505 12.1442 18.1849 11.6005C16.8998 10.365 15.637 9.71707 14.0206 9.46355ZM29.8245 12.1882C29.8705 11.3705 29.9802 10.8311 30.2007 10.3386C30.2879 10.1436 30.3697 9.98401 30.3822 9.98401C30.3949 9.98401 30.357 10.1279 30.2979 10.3038C30.1377 10.7818 30.1113 11.4357 30.2218 12.1964C30.3619 13.1616 30.4417 13.3009 31.4506 14.3435C31.9238 14.8326 32.4743 15.4494 32.6738 15.7142L33.0367 16.1957L32.6738 15.8516C32.2302 15.4308 31.2097 14.6101 30.9844 14.4928C30.8332 14.4141 30.8107 14.4154 30.7175 14.5093C30.6317 14.5957 30.6135 14.7256 30.6015 15.3398C30.583 16.2969 30.454 16.9113 30.1426 17.5256C29.9742 17.8578 29.9475 17.7869 30.0999 17.4119C30.2138 17.1319 30.2253 17.0088 30.2246 16.0822C30.2228 14.2205 30.0041 13.7729 28.7221 13.0062C28.3976 12.8119 27.8623 12.5318 27.5331 12.3836C27.204 12.2355 26.9425 12.1064 26.9519 12.0968C26.9883 12.0602 28.2385 12.4292 28.7417 12.6249C29.4902 12.916 29.6136 12.9538 29.7046 12.9186C29.7654 12.8951 29.795 12.7157 29.8245 12.1882ZM13.545 10.7589C13.4243 12.1963 13.9817 14.1191 14.8826 15.3731C15.5809 16.3453 16.6635 17.1007 17.4627 17.1737C17.986 17.2214 18.1432 17.0558 17.9065 16.7062C17.5778 16.2209 17.1736 15.4735 17.0666 15.1536C17.0002 14.9548 16.8557 14.3677 16.7457 13.8489C16.3699 12.0776 16.0005 11.3877 15.1473 10.8638C14.8364 10.6729 14.1724 10.423 13.7874 10.352L13.5823 10.3141L13.545 10.7589ZM28.7319 24.7065C24.5218 22.9926 23.0389 21.5049 23.0389 18.9946C23.0389 18.6252 23.0516 18.323 23.0669 18.323C23.0823 18.323 23.2451 18.4449 23.4288 18.5939C24.2825 19.2862 25.2385 19.582 27.8852 19.9723C29.4424 20.2022 30.3189 20.3876 31.1274 20.6588C33.697 21.5205 35.2869 23.2691 35.666 25.651C35.7761 26.3431 35.7116 27.6409 35.533 28.3249C35.3919 28.8652 34.9615 29.8389 34.8475 29.8763C34.8158 29.8867 34.7847 29.7641 34.7767 29.5973C34.7334 28.7029 34.2864 27.8322 33.5358 27.1799C32.6823 26.4383 31.5355 25.848 28.7319 24.7065ZM25.5729 24.5179C25.632 24.696 25.7235 25.1011 25.7761 25.4186C26.1134 27.4478 25.0599 29.0873 23.0107 29.7226C22.7938 29.7898 21.9393 29.959 21.1117 30.0982C19.4366 30.3802 18.689 30.58 17.9379 30.9458C17.4053 31.2053 16.7604 31.5938 16.7988 31.6324C16.8111 31.6449 16.9327 31.6155 17.0689 31.5672C18.016 31.2309 19.0701 31.0568 20.6716 30.9726C21.3072 30.9393 22.03 30.886 22.2781 30.8545C23.7048 30.6728 24.6937 30.2345 25.4627 29.4432C25.8906 29.0027 26.1457 28.5925 26.3513 28.014C26.4816 27.647 26.4992 27.5107 26.5002 26.8605C26.5013 26.198 26.4855 26.0768 26.3442 25.6692C26.1594 25.135 25.9412 24.7341 25.665 24.4206L25.4655 24.1942L25.5729 24.5179ZM27.7062 28.8842C27.1467 27.6683 27.0184 26.4945 27.3247 25.3998C27.3576 25.2827 27.4102 25.1869 27.4421 25.1869C27.4738 25.1869 27.6057 25.2592 27.7354 25.3473C27.993 25.5228 28.5101 25.8183 29.8873 26.5775C31.6061 27.525 32.586 28.2586 33.2523 29.0969C33.8359 29.8309 34.197 30.6669 34.3707 31.6864C34.4693 32.2639 34.4116 33.6536 34.2651 34.235C33.803 36.0686 32.729 37.5087 31.1972 38.3493C30.9728 38.4722 30.7713 38.5733 30.7494 38.5739C30.7277 38.5743 30.8095 38.3641 30.9312 38.1066C31.4465 37.0174 31.5051 35.9579 31.1157 34.7788C30.877 34.0568 30.3906 33.1757 29.4086 31.6866C28.2669 29.9555 27.9869 29.4947 27.7062 28.8842ZM17.1697 32.8722C15.399 33.163 13.4551 34.1104 11.8927 35.4443L11.4276 35.8414L11.8364 35.906C13.9695 36.2427 14.5439 36.5413 16.0236 38.0825C16.8751 38.9693 17.1626 39.1667 17.8689 39.349C18.9063 39.6167 19.9288 39.1248 20.2795 38.1891C20.4362 37.771 20.4153 37.0787 20.2355 36.7311C19.8079 35.9033 18.562 35.6358 17.9595 36.2421C17.4577 36.7471 17.6039 37.508 18.228 37.6388C18.3709 37.6689 18.3668 37.6625 18.1916 37.5824C17.9184 37.4574 17.7998 37.2843 17.7983 37.0088C17.7948 36.3627 18.5259 36 19.2062 36.3102C19.7042 36.5376 19.902 36.8345 19.902 37.355C19.902 38.1566 19.2273 38.7605 18.4421 38.6618C18.0224 38.6089 17.5092 38.3375 17.234 38.023C16.5414 37.2312 16.8112 35.9818 17.7781 35.5024C18.5142 35.1376 19.4926 35.2275 20.2514 35.7298C21.1231 36.3071 21.4938 36.8347 22.2446 38.5662C22.4892 39.13 22.8037 39.7647 22.9436 39.9766C23.6549 41.0531 24.5071 41.5811 25.5336 41.5811C26.0997 41.5811 26.5256 41.4765 27.0614 41.2061C27.4595 41.005 28.0239 40.6229 27.9832 40.582C27.9717 40.5704 27.8066 40.6223 27.6162 40.6973C26.4955 41.1393 25.3561 41.1089 24.6945 40.6192C24.2778 40.3109 23.9417 39.6968 23.769 38.9287C23.739 38.7958 23.6404 38.2086 23.5497 37.6239C23.3196 36.1418 23.0988 35.4756 22.5837 34.7111C22.0566 33.9289 21.0435 33.2725 19.9108 32.9793C19.2041 32.7964 17.9328 32.7467 17.1697 32.8722ZM14.6897 21.4134C14.8427 20.8423 15.3366 20.2977 15.8448 20.1399C16.168 20.0396 16.8359 20.1037 17.15 20.265C17.7586 20.578 18.2004 21.2906 18.1046 21.8051C17.9876 22.4323 16.9816 22.9342 15.8243 22.9425C15.2332 22.9466 15.0148 22.8663 14.7891 22.5616C14.6494 22.3728 14.5965 21.7618 14.6897 21.4134ZM16.9946 20.4887C17.2981 20.6761 17.3762 20.9532 17.1977 21.2095C17.0748 21.3862 16.6942 21.554 16.4161 21.554C15.9983 21.554 15.5424 21.254 15.5424 20.9792C15.5424 20.4272 16.4165 20.1317 16.9946 20.4887ZM107.708 22.0694C106.764 18.9258 108.321 16.3183 111.643 15.4804C112.596 15.2399 116.91 15.3484 117.649 15.6315C117.921 15.7352 118.039 16.1334 118.041 16.9516C118.043 17.596 118.113 18.3786 118.197 18.6907C118.324 19.1638 118.25 19.2568 117.751 19.2493C117.3 19.2422 117.027 18.9776 116.646 18.177C116.038 16.8983 115.302 16.4916 113.585 16.4868C111.394 16.4805 109.791 17.9573 110.052 19.7416C110.222 20.9027 111.381 22.0452 113.982 23.6157C116.456 25.1098 117.901 26.3384 118.476 27.4392C120.015 30.3822 118.701 33.5316 115.272 35.1184C113.512 35.9329 110.563 36.0171 108.489 35.3121L107.161 34.8605V32.7365C107.161 30.8128 107.207 30.6121 107.645 30.6121C108.012 30.6121 108.17 30.8545 108.298 31.614C108.618 33.5024 110.052 34.6488 112.094 34.6488C114.094 34.6488 115.492 33.5549 116.028 31.5713C116.256 30.7262 116.216 30.4147 115.764 29.4825C115.222 28.3649 114.288 27.6233 111.117 25.7918C109.357 24.7755 108.113 23.4166 107.708 22.0694ZM45.5408 16.7353C45.1081 16.7353 44.9392 16.5938 44.9392 16.2307C44.9392 15.7501 45.1081 15.7261 48.4989 15.7261C51.6462 15.7261 52.049 15.7736 51.9768 16.1351C51.9316 16.3602 51.4967 16.6723 51.0098 16.829L50.1244 17.1138L50.0489 23.5476C49.9982 27.8406 50.0694 30.3172 50.2625 30.9904C50.8367 32.9928 52.5881 34.1443 55.0593 34.1443C56.7797 34.1443 57.7847 33.7417 59.0472 32.5459C60.4053 31.2605 60.6219 30.0391 60.6176 23.6909C60.6135 17.4292 60.5045 16.9124 59.1611 16.7825C58.5498 16.7232 58.3449 16.5807 58.3449 16.2148C58.3449 15.7587 58.5466 15.7261 61.3801 15.7261C64.2467 15.7261 64.4153 15.7541 64.4153 16.2307C64.4153 16.5416 64.2453 16.7368 63.9726 16.7391C62.8012 16.7495 62.7797 16.861 62.622 23.7272C62.4584 30.8575 62.3057 31.7017 60.8621 33.4483C60.4458 33.9522 59.453 34.6838 58.656 35.0743C57.3572 35.7106 56.944 35.7836 54.6773 35.7795C52.5878 35.7752 51.9281 35.6742 50.8832 35.1981C49.3581 34.5031 48.3663 33.6036 47.635 32.252C47.1246 31.3085 47.081 30.7979 46.9628 24.4053C46.8274 17.0881 46.7619 16.7353 45.5408 16.7353ZM69.2092 16.7353C68.6309 16.7353 68.4623 16.6213 68.4623 16.2307C68.4623 15.7577 68.6239 15.7274 71.0548 15.7468L73.6475 15.7675L74.888 17.1976C75.5697 17.984 77.7929 20.4442 79.8276 22.6644C81.8625 24.8847 84.1988 27.4676 85.019 28.4043C85.8395 29.3411 86.6116 30.1074 86.7351 30.1074C86.8619 30.1074 86.925 27.4613 86.8799 24.0299L86.8 17.9525L86.0903 17.3439C85.7 17.0091 85.1028 16.7353 84.7626 16.7353C84.3101 16.7353 84.1444 16.5981 84.1444 16.2237C84.1444 15.7309 84.2735 15.7145 87.6221 15.7821C90.4695 15.8396 91.1 15.9191 91.1 16.2204C91.1 16.4351 90.7478 16.6604 90.2545 16.7611C89.7896 16.856 89.2773 17.0649 89.1163 17.2253C88.9085 17.4325 88.8027 20.1107 88.7513 26.4614L88.6787 35.4057H87.9456C87.3145 35.4057 86.5633 34.6948 82.5471 30.2966C79.981 27.4864 76.9857 24.1466 75.891 22.8749C74.796 21.603 73.8149 20.5527 73.7107 20.5412C73.417 20.5083 73.488 31.8717 73.7883 32.9503C74.0225 33.7908 74.1835 33.9356 75.1783 34.2011C75.9794 34.4148 76.3033 34.6316 76.3033 34.9535C76.3033 35.3669 75.998 35.4057 72.7622 35.4057C69.4684 35.4057 69.2212 35.3728 69.2212 34.9328C69.2212 34.6106 69.4594 34.4122 69.9685 34.3106C71.513 34.0025 71.6155 33.5135 71.7021 26.0386C71.7506 21.8521 71.6794 18.9228 71.5137 18.3095C71.2226 17.2309 70.4973 16.7353 69.2092 16.7353ZM95.7311 16.7353C95.1892 16.7353 95.0206 16.6155 95.0206 16.2307C95.0206 15.7486 95.1892 15.7261 98.8146 15.7261C102.44 15.7261 102.609 15.7486 102.609 16.2307C102.609 16.6009 102.44 16.7353 101.976 16.7353C101.629 16.7353 101.112 16.967 100.828 17.2501C100.327 17.7499 100.314 17.9984 100.385 25.7229C100.455 33.2635 100.485 33.6998 100.95 34.0388C101.22 34.2356 101.703 34.3966 102.025 34.3966C102.44 34.3966 102.609 34.5421 102.609 34.9012C102.609 35.3834 102.44 35.4057 98.8146 35.4057C95.2755 35.4057 95.0206 35.374 95.0206 34.9335C95.0206 34.5783 95.2688 34.4214 96.0226 34.3012C97.5194 34.0625 97.5959 33.5737 97.5025 24.8514C97.428 17.8664 97.3959 17.4309 96.9325 17.0931C96.6623 16.8963 96.1218 16.7353 95.7311 16.7353ZM122.196 16.7353C121.85 16.7353 121.587 16.5433 121.505 16.2307C121.378 15.7428 121.498 15.7261 125.144 15.7261C128.745 15.7261 128.914 15.7486 128.914 16.2307C128.914 16.6185 128.745 16.7353 128.186 16.7353C126.594 16.7353 126.629 17.0239 129.039 23.6222C130.266 26.9809 131.457 30.1715 131.686 30.7122L132.102 31.6954L134.034 26.5491C136.308 20.4914 136.603 19.3711 136.217 18.2663C135.948 17.4963 134.901 16.7353 134.112 16.7353C133.888 16.7353 133.72 16.5184 133.72 16.2307C133.72 15.7478 133.888 15.7261 137.64 15.7261C141.392 15.7261 141.561 15.7478 141.561 16.2307C141.561 16.5898 141.392 16.7353 140.977 16.7353C139.913 16.7353 139.444 17.301 139.597 18.4001C139.754 19.5314 144.105 31.6905 144.287 31.5086C144.584 31.2127 149.402 18.1233 149.402 17.6131C149.402 17.0018 148.973 16.7353 147.99 16.7353C147.547 16.7353 147.378 16.5963 147.378 16.2307C147.378 15.7541 147.547 15.7261 150.413 15.7261C152.988 15.7261 153.449 15.7857 153.449 16.1177C153.449 16.3332 153.133 16.619 152.748 16.753C151.881 17.0545 151.663 17.3986 150.575 20.1863C150.098 21.4105 148.603 25.2417 147.253 28.6998C145.904 32.1582 144.742 35.1386 144.671 35.3228C144.6 35.5073 144.182 35.6581 143.741 35.6581H142.94L141.124 30.9274C140.124 28.3257 138.944 25.2433 138.5 24.0777C137.74 22.0804 137.676 21.9937 137.39 22.5637C137.223 22.8968 136.023 25.9847 134.722 29.4259L132.358 35.6828L131.475 35.6074L130.593 35.532L127.227 26.7211C125.347 21.7984 123.618 17.6507 123.308 17.3227C123.004 16.9995 122.504 16.7353 122.196 16.7353ZM172.771 16.8423C172.729 16.7465 172.729 16.4021 172.729 16.4021C172.729 16.4021 172.72 16.2778 172.772 16.2116C172.824 16.1455 172.842 16.1437 173.028 16.126L173.03 16.1259C173.713 16.0608 175.083 15.9514 176.226 15.9015C176.331 15.8969 176.447 15.8916 176.574 15.8859L176.577 15.8857L176.578 15.8857L176.579 15.8856C177.838 15.8285 180.09 15.752 181.637 15.8294C184.607 15.978 186.719 17.4149 187.439 19.7895C188.159 22.164 187.778 24.393 186.797 25.8118C185.816 27.2306 184.166 28.4522 181.424 28.3727C179.16 28.3071 178.554 27.8828 178.07 27.5438C177.968 27.4721 177.871 27.4041 177.765 27.3444V30.3726C177.789 32.4378 177.806 33.4297 177.966 33.7969C178.181 34.2912 178.668 34.5957 179.616 34.8292C179.616 34.8292 180.045 34.9298 180.155 35.0371C180.266 35.1444 180.266 35.3828 180.266 35.3828C180.266 35.3828 180.288 35.6056 180.2 35.7192C180.111 35.8328 179.939 35.8101 179.939 35.8101L175.741 35.7762L173.21 35.7695C173.21 35.7695 172.944 35.8205 172.844 35.7135C172.745 35.6064 172.754 35.3834 172.754 35.3834C172.754 35.3834 172.776 35.1431 172.892 35.0356C173.008 34.9279 173.44 34.8076 173.44 34.8076C174.417 34.5332 174.84 34.243 175.061 33.6963C175.239 33.2554 175.241 32.438 175.239 25.7674C175.237 19.4413 175.228 18.2613 175.083 17.9219C174.869 17.4196 174.332 17.2864 173.567 17.0969L173.567 17.0969C173.415 17.0593 173.255 17.0195 173.086 16.9742C173.086 16.9742 172.814 16.9382 172.771 16.8423ZM184.996 22.0042C184.996 23.0416 184.977 24.6656 183.874 25.7037C182.771 26.7418 180.599 27.026 179.124 26.7369C178.66 26.6459 178.394 26.5055 178.189 26.3972L178.169 26.3864L177.791 26.1874L177.769 22.5428C177.756 20.2592 177.78 18.7713 177.833 18.5586C177.882 17.3545 179.657 17.2047 180.524 17.2493C184.233 17.2493 184.887 20.3776 184.996 22.0042ZM161.125 15.8674C161.125 15.8674 160.943 15.937 160.669 16.0413L159.678 16.5533L158.965 18.3355C158.573 19.3157 157.856 21.1151 157.371 22.3342C156.488 24.5546 155.905 26.0133 155.292 27.5359C155.112 27.9838 154.567 29.3476 154.081 30.5666C153.596 31.7855 153.111 32.9456 153.003 33.1446C152.985 33.1777 152.966 33.2133 152.946 33.2509C152.675 33.7617 152.203 34.6488 151.37 34.7829C151.37 34.7829 150.913 34.828 150.743 34.9956C150.573 35.1634 150.59 35.3005 150.59 35.3005V35.5118C150.59 35.5118 150.605 35.6143 150.701 35.6652C150.797 35.7163 150.927 35.7192 150.927 35.7192L153.974 35.6846H157.122C157.122 35.6846 157.345 35.7106 157.431 35.6393C157.516 35.568 157.54 35.4623 157.54 35.4623V35.2398C157.54 35.2398 157.496 34.9986 157.372 34.9044C157.247 34.8104 156.78 34.7459 156.78 34.7459C155.519 34.5801 155.302 33.6258 155.458 32.7676C155.534 32.346 156.041 30.7864 156.611 29.2162L156.809 28.6735L160.108 28.6483C161.922 28.6344 163.489 28.6438 163.589 28.6692C163.732 28.7054 163.932 29.113 164.521 30.5645C165.413 32.7637 165.484 33.0316 165.287 33.443C165.275 33.4681 165.262 33.4957 165.248 33.5255C165.063 33.9234 164.703 34.6966 163.797 34.7753C163.797 34.7753 163.316 34.7919 163.196 34.9359C163.076 35.08 163.102 35.2457 163.102 35.2457V35.4658C163.102 35.4658 163.134 35.5949 163.196 35.646C163.258 35.6971 163.362 35.6842 163.362 35.6842L166.357 35.6626L170.566 35.6624C170.566 35.6624 170.731 35.68 170.776 35.6166C170.821 35.553 170.83 35.4781 170.83 35.4781V35.1858C170.83 35.1858 170.812 35.0303 170.731 34.9445C170.65 34.8589 170.104 34.7684 170.104 34.7684C169.407 34.6558 169.06 34.0797 168.801 33.6506C168.735 33.5412 168.675 33.4413 168.616 33.3612C168.496 33.1977 168.068 32.3015 167.733 31.4397C167.398 30.5778 166.642 28.6308 166.053 27.1133C165.463 25.5958 164.641 23.4789 164.225 22.4092C163.81 21.3394 163.02 19.3039 162.47 17.8858C162.38 17.6531 162.299 17.444 162.226 17.2569L162.226 17.2561C161.857 16.3037 161.709 15.9194 161.668 15.8674C161.535 15.6985 161.125 15.8674 161.125 15.8674ZM160.929 21.6623C160.796 21.339 160.562 20.7589 160.409 20.3733C160.131 19.6724 160.026 19.511 159.94 19.6558C159.915 19.6981 159.74 20.1771 159.551 20.7203C158.33 24.2375 157.778 25.8212 157.667 26.1197C157.597 26.3073 157.54 26.5006 157.54 26.5493C157.54 26.6053 158.533 26.638 160.234 26.638C161.716 26.638 162.928 26.6196 162.928 26.5971C162.928 26.5746 162.796 26.2389 162.635 25.8508C162.473 25.4626 162.077 24.4939 161.756 23.6978C161.434 22.9017 161.062 21.9858 160.929 21.6623Z" fill="#A6ACB8"/>
</svg>
