<svg width="154" height="34" viewBox="0 0 154 34" fill="none" xmlns="http://www.w3.org/2000/svg">
<path d="M14.3225 34.0001C31.1311 34.0001 40.324 21.2848 40.324 10.2616C40.324 9.89973 40.324 9.54036 40.2967 9.18348C42.0899 8.00278 43.6385 6.53996 44.8699 4.86353C43.202 5.53787 41.4329 5.98034 39.6215 6.17623C41.5289 5.13314 42.9567 3.49348 43.6398 1.56179C41.8459 2.5335 39.8831 3.21802 37.8365 3.58576C36.4597 2.24415 34.6365 1.35485 32.6496 1.0558C30.6627 0.75676 28.6233 1.06469 26.8477 1.93183C25.0721 2.79896 23.6595 4.17683 22.8292 5.85169C21.9988 7.52654 21.7971 9.40476 22.2553 11.195C18.6206 11.0294 15.0647 10.1677 11.8185 8.66593C8.57237 7.16411 5.7085 5.05573 3.41289 2.47769C2.24367 4.31436 1.8854 6.48891 2.41106 8.55833C2.93673 10.6278 4.30678 12.4364 6.24212 13.6157C4.79096 13.5758 3.37156 13.218 2.10352 12.5726C2.10352 12.6075 2.10352 12.6424 2.10352 12.6799C2.10391 14.6057 2.83386 16.4722 4.16959 17.9628C5.50531 19.4533 7.3646 20.4763 9.43217 20.8581C8.64809 21.0584 7.8381 21.1616 7.02391 21.1651C6.44695 21.1635 5.87138 21.1134 5.30451 21.0153C5.8915 22.6708 7.0298 24.1177 8.56064 25.1543C10.0915 26.1909 11.9385 26.7654 13.8441 26.7977C10.6078 29.115 6.61278 30.3727 2.49989 30.369C1.76905 30.3692 1.03883 30.3301 0.313049 30.2517C4.49265 32.701 9.35597 34.0005 14.3225 33.9951" fill="#A0A9BD"/>
<path d="M71.4614 14.6903C71.3667 16.5029 70.8819 17.9336 70.007 18.9823C69.1322 20.0309 67.9456 20.5553 66.4475 20.5553C65.0203 20.5553 64.0665 19.9971 63.5862 18.8806C63.2326 19.3899 62.7526 19.8146 62.1857 20.1197C61.6768 20.3888 61.1001 20.5307 60.5131 20.5311C59.363 20.5311 58.4899 20.0959 57.8937 19.2255C57.2976 18.3551 57.071 17.191 57.2139 15.7334C57.3182 14.6244 57.6366 13.5414 58.1541 12.5353C58.6555 11.5842 59.2902 10.8497 60.0582 10.3318C60.7617 9.83367 61.6228 9.56048 62.5105 9.55378C63.1051 9.5446 63.6975 9.62178 64.266 9.78248C64.7744 9.93575 65.3719 10.2516 66.0583 10.7299L65.4429 16.855C65.293 18.2909 65.7422 19.0089 66.7907 19.0089C67.5946 19.0089 68.2547 18.612 68.771 17.8182C69.2873 17.0244 69.5692 15.9963 69.6165 14.7339C69.7506 12.0573 69.1891 10.0083 67.9321 8.58698C66.675 7.16561 64.7867 6.45492 62.2673 6.45492C60.7226 6.45492 59.3533 6.81027 58.1594 7.52095C56.9654 8.23164 56.016 9.26096 55.3112 10.6089C54.6099 11.9545 54.2233 13.4872 54.1514 15.207C54.0576 16.9551 54.2842 18.462 54.8312 19.7276C55.3782 20.9933 56.2176 21.9561 57.3494 22.6159C58.4811 23.2766 59.8627 23.607 61.4941 23.607C62.1922 23.6032 62.8879 23.5301 63.5691 23.3892C64.2088 23.2707 64.8281 23.0728 65.41 22.8011L65.8571 24.2821C65.3758 24.5726 64.7275 24.8065 63.9123 24.984C63.1045 25.1607 62.277 25.25 61.4467 25.2502C59.4436 25.2502 57.7254 24.8605 56.2921 24.0813C54.8588 23.302 53.7828 22.1727 53.0639 20.6932C52.3241 19.1605 51.9971 17.329 52.083 15.1985C52.1777 13.2117 52.6624 11.4257 53.5373 9.84056C54.4122 8.25543 55.6084 7.02525 57.1258 6.15C58.6433 5.27314 60.3711 4.8343 62.3093 4.8335C64.273 4.8335 65.9618 5.23038 67.3758 6.02416C68.7898 6.81793 69.8484 7.96059 70.5514 9.45214C71.2527 10.9421 71.5561 12.6881 71.4614 14.6903ZM59.5309 15.7346C59.4283 16.7211 59.523 17.4701 59.8149 17.9816C59.9399 18.2224 60.1396 18.4238 60.3889 18.5603C60.6381 18.6968 60.9256 18.7624 61.2153 18.7487C61.6413 18.7487 62.0433 18.5765 62.4211 18.232C62.8386 17.8272 63.153 17.3419 63.3416 16.8115L63.8676 11.4487C63.5023 11.3159 63.1137 11.2457 62.7209 11.2418C61.8443 11.2418 61.1311 11.6205 60.5815 12.378C60.0318 13.1354 59.6816 14.2543 59.5309 15.7346Z" fill="#A0A9BD"/>
<path d="M76.1211 8.92969L76.1971 10.2535C77.0648 9.23276 78.2029 8.72241 79.6114 8.72241C82.0532 8.72241 83.2958 10.0886 83.3391 12.8209V20.3891H80.7009V12.9693C80.7009 12.2415 80.5402 11.7029 80.2189 11.3535C79.8975 11.0041 79.3716 10.8294 78.6412 10.8294C77.5798 10.8294 76.7888 11.3005 76.2682 12.2427V20.3891H73.6348V8.92969H76.1211Z" fill="#A0A9BD"/>
<path d="M91.9504 20.3885C90.0319 20.3885 88.477 19.8843 87.2854 18.8759C86.0939 17.8676 85.4977 16.5246 85.4968 14.847V14.5348C85.4761 13.496 85.7425 12.4671 86.2754 11.5281C86.7552 10.6802 87.5133 9.96325 88.4617 9.46049C89.4019 8.96854 90.4916 8.71245 91.6012 8.72271C93.4375 8.72271 94.8557 9.21148 95.8561 10.189C96.8564 11.1666 97.3565 12.5493 97.3565 14.3371V15.3558H88.549C88.6414 16.2856 89.0108 17.0207 89.6574 17.5611C89.9802 17.8285 90.3648 18.0381 90.7879 18.1773C91.2109 18.3165 91.6635 18.3822 92.118 18.3706C93.5035 18.3706 94.6327 17.9026 95.5055 16.9667L97.1376 18.2665C96.5972 18.9396 95.851 19.4798 94.9763 19.8311C94.033 20.21 92.9971 20.4008 91.9504 20.3885ZM91.5888 10.7499C91.2096 10.7387 90.8323 10.7983 90.4843 10.9244C90.1362 11.0504 89.8263 11.2397 89.577 11.4784C89.0653 11.9633 88.7393 12.6391 88.5989 13.5056H94.3667V13.3229C94.3002 12.4749 94.0305 11.8354 93.5575 11.4044C93.0846 10.9735 92.4284 10.7553 91.5888 10.7499Z" fill="#A0A9BD"/>
<path d="M98.4357 14.4516C98.4177 13.4213 98.6721 12.4015 99.1788 11.473C99.6334 10.6288 100.358 9.92047 101.264 9.43565C102.199 8.95142 103.268 8.7049 104.352 8.72338C106.072 8.72338 107.471 9.2121 108.546 10.1896C109.622 11.167 110.201 12.4628 110.283 14.077L110.295 14.6702C110.314 15.697 110.066 16.7142 109.57 17.643C109.119 18.4843 108.398 19.1897 107.495 19.6711C106.551 20.1594 105.472 20.4075 104.378 20.388C102.579 20.388 101.14 19.8596 100.06 18.8027C98.9796 17.7459 98.4383 16.3371 98.4357 14.5765V14.4516ZM101.299 14.6702C101.299 15.8265 101.571 16.7326 102.113 17.3886C102.656 18.0446 103.41 18.3722 104.376 18.3714C105.341 18.3714 106.093 18.0388 106.633 17.3736C107.172 16.7083 107.441 15.7343 107.44 14.4516C107.44 13.3154 107.163 12.4143 106.609 11.7482C106.356 11.4297 106.018 11.1717 105.624 10.9975C105.229 10.8233 104.793 10.7384 104.352 10.7504C103.917 10.7389 103.486 10.8227 103.098 10.9942C102.709 11.1657 102.374 11.4196 102.124 11.7332C101.574 12.3877 101.299 13.3666 101.299 14.6702Z" fill="#A0A9BD"/>
<path d="M119.271 17.1223C119.281 16.9165 119.226 16.7122 119.112 16.531C118.999 16.3498 118.831 16.1984 118.626 16.0927C118.197 15.8567 117.482 15.6485 116.483 15.468C115.623 15.326 114.786 15.0957 113.989 14.782C112.527 14.1712 111.796 13.287 111.797 12.1294C111.797 11.1591 112.271 10.3493 113.219 9.69996C114.167 9.05057 115.372 8.72473 116.836 8.72241C118.395 8.72241 119.654 9.0552 120.613 9.72078C121.072 10.0242 121.442 10.417 121.692 10.8671C121.942 11.3172 122.065 11.8119 122.052 12.311H119.126C119.131 12.0818 119.078 11.8544 118.97 11.645C118.862 11.4357 118.701 11.2495 118.5 11.0998C118.082 10.7766 117.528 10.615 116.838 10.615C116.195 10.615 115.671 10.7434 115.266 11.0003C115.073 11.1146 114.917 11.2686 114.81 11.4484C114.704 11.6282 114.651 11.828 114.656 12.0299C114.65 12.2104 114.699 12.3893 114.799 12.5482C114.898 12.7071 115.045 12.8404 115.223 12.9345C115.601 13.1497 116.364 13.3664 117.512 13.5847C118.659 13.8029 119.561 14.0617 120.217 14.3609C120.802 14.6101 121.303 14.984 121.674 15.4472C122.006 15.9088 122.173 16.4442 122.155 16.987C122.155 17.9996 121.669 18.8195 120.698 19.4465C119.726 20.0735 118.453 20.3874 116.879 20.3882C115.897 20.4033 114.922 20.2331 114.024 19.8895C113.241 19.5934 112.566 19.1187 112.072 18.5164C111.619 17.9662 111.375 17.3081 111.374 16.633H114.217C114.257 17.2299 114.518 17.6896 114.999 18.012C115.481 18.3343 116.119 18.4955 116.915 18.4955C117.686 18.4955 118.273 18.3691 118.674 18.1161C118.862 18.0062 119.014 17.8578 119.118 17.6844C119.222 17.5109 119.275 17.3177 119.271 17.1223Z" fill="#A0A9BD"/>
<path d="M132.939 22.3334H122.157V20.3889H132.939V22.3334Z" fill="#A0A9BD"/>
<path d="M138.894 18.0411L141.712 9.69458H144.8L140.186 21.3612H137.586L132.939 9.69458H136.04L138.894 18.0411Z" fill="#A0A9BD"/>
<path d="M153.415 12.2619C153.042 12.2047 152.665 12.1764 152.287 12.1772C151.02 12.1772 150.166 12.6288 149.725 13.5321V21.3612H146.957V9.90763H149.599L149.668 11.1884C150.336 10.1941 151.263 9.69653 152.447 9.69574C152.781 9.6861 153.113 9.73646 153.426 9.84406L153.415 12.2619Z" fill="#A0A9BD"/>
</svg>
