<svg width="156" height="28" viewBox="0 0 156 28" fill="none" xmlns="http://www.w3.org/2000/svg">
<path d="M33.1553 2.92855C30.6443 1.88139 27.9594 1.12035 25.1524 0.687012C24.8077 1.24254 24.4049 1.98973 24.1272 2.58412C21.1434 2.18415 18.1869 2.18415 15.2579 2.58412C14.9803 1.98973 14.5684 1.24254 14.2206 0.687012C11.4106 1.12035 8.72259 1.88418 6.21158 2.9341C1.14686 9.75583 -0.226102 16.4081 0.460381 22.9659C3.81957 25.2019 7.07503 26.5602 10.2756 27.449C11.0658 26.4796 11.7706 25.4491 12.3777 24.3631C11.2214 23.9714 10.1138 23.4882 9.06737 22.9271C9.345 22.7438 9.61656 22.5521 9.87892 22.3549C16.2617 25.0158 23.1967 25.0158 29.5032 22.3549C29.7686 22.5521 30.0401 22.7438 30.3147 22.9271C29.2652 23.4909 28.1546 23.9742 26.9983 24.3659C27.6054 25.4491 28.3072 26.4824 29.1004 27.4517C32.3041 26.5629 35.5625 25.2047 38.9217 22.9659C39.7272 15.3637 37.5457 8.77255 33.1553 2.92855ZM13.2473 18.9329C11.3312 18.9329 9.75992 17.3386 9.75992 15.3971C9.75992 13.4555 11.2977 11.8584 13.2473 11.8584C15.1969 11.8584 16.7682 13.4527 16.7346 15.3971C16.7376 17.3386 15.1969 18.9329 13.2473 18.9329ZM26.1348 18.9329C24.2188 18.9329 22.6475 17.3386 22.6475 15.3971C22.6475 13.4555 24.1852 11.8584 26.1348 11.8584C28.0844 11.8584 29.6557 13.4527 29.6222 15.3971C29.6222 17.3386 28.0844 18.9329 26.1348 18.9329Z" fill="#A0A9BD"/>
<path d="M52.4222 7.51489H60.7513C62.7592 7.51489 64.4555 7.80097 65.8471 8.37039C67.2349 8.93975 68.2755 9.73416 68.9652 10.7507C69.6544 11.7673 70.0021 12.9311 70.0021 14.2422C70.0021 15.5254 69.6421 16.6892 68.9221 17.7308C68.2022 18.7751 67.1068 19.6001 65.6333 20.2084C64.1598 20.8167 62.3349 21.1222 60.1537 21.1222H52.4222V7.51489ZM60.068 17.6641C61.4197 17.6641 62.4604 17.3558 63.1862 16.742C63.9126 16.1253 64.2757 15.2865 64.2757 14.2227C64.2757 13.2367 63.9519 12.4506 63.3053 11.8618C62.6587 11.2729 61.6792 10.9757 60.3701 10.9757H57.7645V17.6641H60.068Z" fill="#A0A9BD"/>
<path d="M82.4721 21.1056C81.3187 20.8334 80.2781 20.439 79.3539 19.9196V16.6921C80.0526 17.1836 80.989 17.5892 82.1637 17.9086C83.3383 18.2253 84.4736 18.3836 85.5716 18.3836C86.0842 18.3836 86.4719 18.3225 86.734 18.2002C86.9967 18.078 87.128 17.9308 87.128 17.7614C87.128 17.567 87.0578 17.4059 86.9143 17.2753C86.7707 17.1448 86.4931 17.0364 86.0815 16.9448L83.5185 16.4198C82.0509 16.1088 81.0103 15.6782 80.3913 15.1255C79.7719 14.5755 79.4634 13.8533 79.4634 12.959C79.4634 12.2062 79.732 11.5535 80.2754 10.9952C80.8151 10.4369 81.584 10.0064 82.5816 9.70363C83.5797 9.39812 84.7447 9.24536 86.0842 9.24536C87.2801 9.24536 88.3755 9.362 89.3736 9.59533C90.3711 9.82866 91.1948 10.1258 91.851 10.4897V13.5423C91.1794 13.1784 90.4105 12.8923 89.532 12.6756C88.6563 12.4618 87.7565 12.3562 86.8286 12.3562C85.4892 12.3562 84.8213 12.5645 84.8213 12.9784C84.8213 13.1729 84.925 13.3173 85.1324 13.4145C85.3398 13.5117 85.721 13.6117 86.2735 13.7173L88.409 14.0672C89.8038 14.2867 90.8439 14.6728 91.5272 15.2227C92.211 15.7727 92.5524 16.5865 92.5524 17.6642C92.5524 18.8446 91.9882 19.7807 90.8561 20.4751C89.724 21.1695 88.1192 21.5167 86.0385 21.5167C84.8149 21.5139 83.6254 21.3778 82.4721 21.1056Z" fill="#A0A9BD"/>
<path d="M97.5933 20.6972C96.3703 20.1528 95.4456 19.414 94.8293 18.4807C94.213 17.5474 93.9019 16.4975 93.9019 15.3309C93.9019 14.1644 94.222 13.12 94.8628 12.2006C95.5035 11.2812 96.4431 10.5591 97.6821 10.0341C98.9205 9.50915 100.4 9.24805 102.124 9.24805C104.26 9.24805 106.033 9.65636 107.442 10.4729V14.031C106.945 13.7199 106.365 13.4672 105.703 13.2728C105.041 13.0783 104.333 12.9811 103.576 12.9811C102.252 12.9811 101.218 13.2005 100.471 13.6422C99.7229 14.0838 99.3481 14.6588 99.3481 15.3726C99.3481 16.0725 99.7107 16.6447 100.437 17.0947C101.163 17.5419 102.216 17.7669 103.598 17.7669C104.309 17.7669 105.011 17.6724 105.703 17.4863C106.393 17.2975 106.988 17.0669 107.485 16.7947V20.2361C105.92 21.0916 104.105 21.5194 102.039 21.5194C100.3 21.5138 98.8168 21.2416 97.5933 20.6972Z" fill="#A0A9BD"/>
<path d="M112.769 20.6974C111.537 20.153 110.597 19.4086 109.95 18.4614C109.303 17.5143 108.977 16.4588 108.977 15.2922C108.977 14.1257 109.3 13.0841 109.95 12.1703C110.6 11.2564 111.534 10.5398 112.76 10.0204C113.983 9.50098 115.445 9.24268 117.138 9.24268C118.832 9.24268 120.293 9.50098 121.516 10.0204C122.74 10.5398 123.674 11.2509 124.315 12.1591C124.955 13.0674 125.275 14.109 125.275 15.2895C125.275 16.456 124.955 17.5115 124.315 18.4587C123.674 19.4058 122.737 20.1502 121.504 20.6946C120.272 21.239 118.816 21.5112 117.135 21.5112C115.454 21.5112 113.999 21.2418 112.769 20.6974ZM119.259 17.2476C119.778 16.7755 120.04 16.1505 120.04 15.3728C120.04 14.5951 119.78 13.9757 119.259 13.5174C118.74 13.0563 118.032 12.8258 117.135 12.8258C116.223 12.8258 115.509 13.0563 114.987 13.5174C114.469 13.9785 114.209 14.5951 114.209 15.3728C114.209 16.1505 114.469 16.7755 114.987 17.2476C115.506 17.7198 116.223 17.9587 117.135 17.9587C118.032 17.9559 118.74 17.7198 119.259 17.2476Z" fill="#A0A9BD"/>
<path d="M138.108 9.96466V14.1644C137.565 13.8394 136.863 13.6783 135.994 13.6783C134.855 13.6783 133.977 13.9922 133.366 14.6199C132.753 15.2476 132.448 16.2253 132.448 17.5474V21.125H127.216V9.75081H132.342V13.3672C132.625 12.0451 133.086 11.0702 133.721 10.4396C134.352 9.8119 135.17 9.49805 136.164 9.49805C136.918 9.49805 137.565 9.6536 138.108 9.96466Z" fill="#A0A9BD"/>
<path d="M155.493 7.12598V21.125H150.26V18.5779C149.818 19.5362 149.147 20.2667 148.244 20.7666C147.34 21.2639 146.224 21.5138 144.899 21.5138C143.716 21.5138 142.685 21.2527 141.803 20.7278C140.921 20.2028 140.241 19.4834 139.762 18.5696C139.286 17.6558 139.044 16.6225 139.044 15.4671C139.03 14.2755 139.283 13.2061 139.804 12.2589C140.323 11.3118 141.058 10.573 142.004 10.0424C142.95 9.51193 144.03 9.24528 145.241 9.24528C147.734 9.24528 149.406 10.2313 150.26 12.2006V7.12598H155.493ZM149.479 17.1697C150.013 16.6975 150.279 16.0837 150.279 15.3338C150.279 14.6088 150.019 14.0171 149.501 13.5644C148.982 13.1117 148.271 12.8839 147.377 12.8839C146.495 12.8839 145.791 13.1144 145.263 13.5755C144.735 14.0366 144.472 14.6338 144.472 15.3726C144.472 16.1115 144.735 16.7142 145.263 17.1808C145.791 17.6474 146.486 17.8808 147.356 17.8808C148.237 17.878 148.945 17.6419 149.479 17.1697Z" fill="#A0A9BD"/>
<path d="M74.4114 10.9619C75.8519 10.9619 77.0201 10.0068 77.0201 8.8287C77.0201 7.65058 75.8519 6.69556 74.4114 6.69556C72.9703 6.69556 71.8026 7.65058 71.8026 8.8287C71.8026 10.0068 72.9703 10.9619 74.4114 10.9619Z" fill="#A0A9BD"/>
<path d="M71.8005 12.4314C73.3989 13.0591 75.3823 13.0869 77.0174 12.4314V21.1863H71.8005V12.4314Z" fill="#A0A9BD"/>
</svg>
