<svg width="33" height="27" viewBox="0 0 33 27" fill="none" xmlns="http://www.w3.org/2000/svg">
<path fill-rule="evenodd" clip-rule="evenodd" d="M3.12705 11.6939C11.5811 8.01057 17.2185 5.58231 20.0392 4.40909C28.0928 1.05932 29.7663 0.477427 30.857 0.458213C31.0969 0.453987 31.6333 0.513441 31.9808 0.795376C32.2742 1.03344 32.3549 1.35502 32.3935 1.58073C32.4321 1.80644 32.4802 2.32061 32.442 2.72237C32.0056 7.30795 30.1172 18.4359 29.1564 23.5719C28.7499 25.7451 27.9495 26.4737 27.1746 26.5451C25.4905 26.7 24.2117 25.4321 22.5805 24.3629C20.0282 22.6898 18.5862 21.6482 16.1087 20.0156C13.2455 18.1288 15.1016 17.0918 16.7333 15.397C17.1604 14.9534 24.5805 8.20428 24.7241 7.59202C24.7421 7.51545 24.7587 7.23002 24.5892 7.07931C24.4196 6.92859 24.1693 6.98013 23.9887 7.02112C23.7327 7.07922 19.6553 9.77427 11.7564 15.1063C10.599 15.901 9.55068 16.2882 8.61142 16.2679C7.57598 16.2456 5.58419 15.6825 4.10349 15.2012C2.28737 14.6108 0.843946 14.2987 0.969635 13.2961C1.0351 12.7739 1.75424 12.2398 3.12705 11.6939Z" fill="#A0A9BD"/>
</svg>
