<svg width="33" height="22" viewBox="0 0 33 22" fill="none" xmlns="http://www.w3.org/2000/svg">
<path d="M27.2468 1.84249C25.1837 0.98175 22.9777 0.356196 20.6715 0C20.3882 0.456631 20.0573 1.07081 19.8292 1.55938C17.3775 1.23062 14.9484 1.23062 12.5419 1.55938C12.3138 1.07081 11.9754 0.456631 11.6896 0C9.38082 0.356196 7.17232 0.984048 5.10921 1.84705C0.947908 7.45436 -0.180153 12.9224 0.383879 18.3128C3.14387 20.1507 5.81864 21.2672 8.44827 21.9977C9.09754 21.2009 9.6766 20.3539 10.1754 19.4612C9.22538 19.1393 8.31541 18.742 7.4556 18.2808C7.6837 18.1302 7.90683 17.9726 8.12239 17.8105C13.3666 19.9977 19.0646 19.9977 24.2462 17.8105C24.4643 17.9726 24.6874 18.1302 24.913 18.2808C24.0506 18.7443 23.1382 19.1416 22.1881 19.4635C22.6869 20.3539 23.2635 21.2032 23.9153 22C26.5474 21.2694 29.2247 20.153 31.9847 18.3128C32.6465 12.064 30.8541 6.64613 27.2468 1.84249ZM10.8899 14.9977C9.31564 14.9977 8.02461 13.6872 8.02461 12.0913C8.02461 10.4955 9.28807 9.18267 10.8899 9.18267C12.4918 9.18267 13.7828 10.4932 13.7552 12.0913C13.7577 13.6872 12.4918 14.9977 10.8899 14.9977ZM21.4787 14.9977C19.9044 14.9977 18.6134 13.6872 18.6134 12.0913C18.6134 10.4955 19.8768 9.18267 21.4787 9.18267C23.0805 9.18267 24.3715 10.4932 24.344 12.0913C24.344 13.6872 23.0805 14.9977 21.4787 14.9977Z" fill="white"/>
</svg>
