<?xml version="1.0" encoding="UTF-8"?><svg id="Layer_2" xmlns="http://www.w3.org/2000/svg" xmlns:xlink="http://www.w3.org/1999/xlink" viewBox="0 0 750 750"><defs><style>.cls-1{fill:none;}.cls-2{clip-path:url(#clippath);}.cls-3{fill:#fff;}.cls-4{fill:#d7d7d7;}.cls-5{fill:#dfdfdf;}</style><clipPath id="clippath"><rect class="cls-1" width="750" height="750"/></clipPath></defs><g id="Layer_1-2"><g class="cls-2"><path class="cls-3" d="M35.73,304.8c.41-12.18,11.54-23.04,23.78-22.8,17.75,.04,35.5,0,53.26,.02,8.86,12.6,17.89,25.07,26.68,37.7-10.63,15.04-21.34,30.02-31.96,45.07-4.28,6.13-4.31,14.74-.04,20.9,10.62,15.06,21.34,30.06,31.99,45.11-8.79,12.63-17.82,25.11-26.68,37.71H58.61c-12.27-.28-23.08-11.55-22.89-23.81,.03-46.63,0-93.26,0-139.89"/><path class="cls-3" d="M131.41,371.23c6.23-8.78,12.44-17.59,18.72-26.33,6.32,8.89,12.67,17.79,18.96,26.71,1.75,2.28,1.47,5.7-.37,7.86-6.21,8.71-12.38,17.45-18.59,26.15-6.42-8.99-12.84-17.96-19.17-27.02-1.68-2.18-1.28-5.34,.45-7.37"/><path class="cls-4" d="M132.49,282.02c22.62,.02,45.25-.03,67.86,.02,11.54,.54,21.06,11.37,20.86,22.8,0,46.94-.01,93.88,0,140.82,.21,11.45-9.33,22.3-20.89,22.83-22.62,.04-45.23,0-67.84,.01,19.41-27.26,38.74-54.57,58.13-81.85,3.2-4.23,4.5-9.8,3.45-15-.6-3.99-3.06-7.29-5.36-10.47-18.76-26.38-37.45-52.8-56.22-79.16"/><path class="cls-5" d="M269.01,321.68c17.01-.26,34.05-.09,51.07-.08,9.33,.33,19.28,.05,27.7,4.74,9.29,5.05,15.92,15.35,15.18,26.11-.26,10.03-6.81,19.07-15.55,23.63,6.33,2.64,12.73,6.01,16.6,11.93,9.05,12.96,4.87,31.97-6.85,41.87-6.46,5.58-15.17,7.68-23.52,7.92-21.02,.81-42.07,.38-63.1,.49-2.15,.41-4.17-1.35-3.76-3.57-.05-36.25,0-72.52-.03-108.78-.12-1.67,.2-3.98,2.25-4.25m23.13,20.12v25.8c9.62,.04,19.26,.02,28.89-.16,4.36-.1,9.02-.54,12.63-3.24,6.54-4.59,6.22-16.12-.83-20.06-3.9-2.24-8.56-2.1-12.9-2.22-9.27-.09-18.53-.15-27.79-.11m0,76.03c10.59-.04,21.18,.12,31.77-.15,4.39-.18,9.1-.3,12.89-2.82,8.06-4.91,7.93-18.46,.02-23.46-3.83-2.61-8.62-2.92-13.1-3.22-10.51-.56-21.05-.27-31.57-.35-.02,10,0,19.99,0,29.99"/><path class="cls-5" d="M502.97,324.94c-.33-2.07,1.54-3.73,3.56-3.38,28.65,0,57.3-.02,85.93,.02,1.55-.18,3.25,.9,3.25,2.58,.15,5.13,.17,10.27,0,15.41-.02,1.65-1.72,2.71-3.24,2.53-21.38,.07-42.76,0-64.14,.04,0,8.22,0,16.45,0,24.67h56.78c1.84-.29,3.99,.89,3.78,2.98,.08,4.87,.1,9.76,0,14.64,.16,2.06-2.01,3.13-3.77,2.84-18.93,0-37.85,0-56.79,0,0,10.18,0,20.37,0,30.54,21.37,.07,42.75-.03,64.12,.05,1.79-.28,3.46,1.21,3.3,3.04,.07,4.88,.12,9.78-.03,14.66,.06,1.7-1.6,2.95-3.23,2.71-28.69,.04-57.4,.02-86.09,0-2.07,.38-3.79-1.49-3.45-3.5,0-36.61-.03-73.23,.01-109.83"/><path class="cls-5" d="M383.88,325.86c-.06-1.4,.05-3.67,1.97-3.64,6.73-.21,13.47-.09,20.19-.06,1.5-.2,2.49,1.39,2.29,2.73,.05,23.44,0,46.88,.02,70.32,16.62-23.71,33.18-47.46,49.81-71.17,.74-1.21,1.98-2.07,3.46-1.9,9.08-.03,18.15-.08,27.23,.06-12.2,18.44-25.1,36.42-37.55,54.69,12.24,18.76,24.56,37.47,36.76,56.24,1.55,1.43,.52,4.38-1.7,4.08-8.06,.09-16.12,.02-24.19,0-8.32-13.48-16.65-26.97-25.02-40.41-9.81,13.49-19.28,27.24-29.26,40.6-7.37-.08-14.74,.15-22.11-.09-1.84,.02-1.96-2.23-1.9-3.57,.02-35.96,.02-71.92,0-107.89"/><path class="cls-5" d="M608.63,325.33c-1.18-.97-.59-3.43,1.13-3.15,8.26-.07,16.53-.14,24.78,.04,1.49-.1,2.19,1.45,2.97,2.45,7.32,11.3,14.67,22.59,22.05,33.87,7.39-11.59,14.74-23.21,22.19-34.76,.87-1.86,3.05-1.63,4.76-1.66,7.38,.09,14.75-.07,22.12,.07,1.69-.21,2.29,2.16,1.11,3.16-11.73,17.67-23.56,35.28-35.33,52.92,12.94,18.76,25.99,37.45,38.92,56.21,1.16,1,.7,3.44-1.09,3.18-7.64,.15-15.29-.02-22.93,.08-1.79-.07-4.09,.32-5.06-1.61-8.45-12.52-16.78-25.1-25.2-37.63-8.28,12.31-16.55,24.64-24.81,36.98-.8,1.23-1.85,2.49-3.49,2.2-8.23,.05-16.46,.08-24.68-.02-1.96,.33-2.46-2.22-1.18-3.3,12.92-19,25.95-37.95,38.88-56.96-11.73-17.35-23.47-34.69-35.16-52.07"/></g></g></svg>
