<svg width="27" height="20" viewBox="0 0 27 20" fill="none" xmlns="http://www.w3.org/2000/svg">
<path d="M14.0985 19.9744L8.55902 19.8658C6.76543 19.8281 4.96743 19.9036 3.20909 19.5119C0.534123 18.9268 0.344627 16.0576 0.146319 13.651C-0.126907 10.2675 -0.0211423 6.82264 0.494461 3.46746C0.785314 1.58459 1.9311 0.461478 3.70266 0.338785C9.68277 -0.104797 15.7026 -0.0528882 21.6694 0.154746C22.2996 0.173622 22.9342 0.277439 23.5556 0.395413C26.6228 0.971126 26.6977 4.22249 26.896 6.95949C27.0943 9.7248 27.0106 12.5043 26.6316 15.2507C26.3275 17.5252 25.7458 19.4317 23.2912 19.6157C20.2152 19.8564 17.2097 20.0499 14.1249 19.9885C14.1249 19.9744 14.1073 19.9744 14.0985 19.9744ZM10.8418 14.2172C13.1598 12.7921 15.4337 11.3906 17.7385 9.9749C15.4161 8.54977 13.1466 7.14824 10.8418 5.73256V14.2172Z" fill="#A0A9BD"/>
</svg>
