<?xml version="1.0" encoding="UTF-8"?><svg xmlns="http://www.w3.org/2000/svg" viewBox="0 0 98.01 63.62"><defs><style>.d{fill:#bfc0c5;}</style></defs><g id="a"/><g id="b"><g id="c"><g><path class="d" d="M84.63,33.74l1.57-.59c6.4-2.38,10.86-8.95,10.86-15.97,0-9.48-7.71-17.19-17.18-17.19h-24.01V9.05l13.07,17.31h-13.07v23.79h8.01v-15.77h11.16l11.95,15.77h10.04l-12.4-16.4Zm-5.65-7.38l-13.84-18.34h14.73c4.93,0,9.1,4.2,9.1,9.17s-4.17,9.17-9.1,9.17h-.9Z"/><g><path class="d" d="M74.73,54.57c0-1.03,.4-1.65,1.33-1.65s1.33,.62,1.33,1.66v.38h1.23v-.32c0-1.76-.83-2.91-2.6-2.91s-2.58,1.11-2.58,2.91c0,1.13,.47,1.91,1.08,2.54h-31.55l.73,.98h31.94c.88,.72,1.7,1.42,1.7,2.61,0,1.05-.43,1.66-1.36,1.66s-1.36-.62-1.36-1.66v-.73h-1.21v.67c0,1.76,.83,2.91,2.61,2.91s2.63-1.15,2.63-2.91c0-3.28-3.91-3.53-3.91-6.14Z"/><polygon class="d" points="85.74 57.58 83.93 51.86 82.58 51.86 85.05 59.33 85.05 63.5 86.33 63.5 86.33 59.33 88.81 51.86 87.57 51.86 85.74 57.58"/><path class="d" d="M94.1,54.57c0-1.03,.4-1.65,1.33-1.65s1.33,.62,1.33,1.66v.38h1.23v-.32c0-1.76-.83-2.91-2.6-2.91s-2.58,1.11-2.58,2.91c0,3.28,3.89,3.53,3.89,6.12,0,1.05-.43,1.66-1.36,1.66s-1.36-.62-1.36-1.66v-.73h-1.21v.67c0,1.76,.83,2.91,2.61,2.91s2.63-1.15,2.63-2.91c0-3.28-3.91-3.53-3.91-6.14Z"/></g><path class="d" d="M10.89,.09H0L37.67,50.14h11.64V12.43h-8.96v27.52L10.89,.09Z"/><rect class="d" x="40.36" width="8.96" height="7.03"/></g></g></g></svg>