<svg width="128" height="95" viewBox="0 0 128 95" fill="none" xmlns="http://www.w3.org/2000/svg">
<path d="M95.9557 12.0166L65.9574 34.0521L71.5238 21.0515L95.9557 12.0166Z" fill="#E2761B" stroke="#E2761B" stroke-linecap="round" stroke-linejoin="round"/>
<path d="M26.8121 12.0166L56.5096 34.2608L51.214 21.0515L26.8121 12.0166Z" fill="#E4761B" stroke="#E4761B" stroke-linecap="round" stroke-linejoin="round"/>
<path d="M85.1539 63.0948L77.1804 75.2009L94.2708 79.8525L99.1451 63.3631L85.1539 63.0948Z" fill="#E4761B" stroke="#E4761B" stroke-linecap="round" stroke-linejoin="round"/>
<path d="M23.6528 63.3631L28.4971 79.8525L45.5573 75.2009L37.6139 63.0948L23.6528 63.3631Z" fill="#E4761B" stroke="#E4761B" stroke-linecap="round" stroke-linejoin="round"/>
<path d="M44.6246 42.6397L39.8706 49.7662L56.7804 50.5116L56.2087 32.4717L44.6246 42.6397Z" fill="#E4761B" stroke="#E4761B" stroke-linecap="round" stroke-linejoin="round"/>
<path d="M78.1433 42.6397L66.3485 32.263L65.9574 50.5116L82.8672 49.7661L78.1433 42.6397Z" fill="#E4761B" stroke="#E4761B" stroke-linecap="round" stroke-linejoin="round"/>
<path d="M45.5573 75.2009L55.7574 70.2809L46.9715 63.4824L45.5573 75.2009Z" fill="#E4761B" stroke="#E4761B" stroke-linecap="round" stroke-linejoin="round"/>
<path d="M66.9804 70.2809L77.1804 75.2009L75.7663 63.4824L66.9804 70.2809Z" fill="#E4761B" stroke="#E4761B" stroke-linecap="round" stroke-linejoin="round"/>
<path d="M77.1804 75.2009L66.9804 70.2809L67.7928 76.8707L67.7025 79.6438L77.1804 75.2009Z" fill="#D7C1B3" stroke="#D7C1B3" stroke-linecap="round" stroke-linejoin="round"/>
<path d="M45.5573 75.2009L55.0352 79.6438L54.9751 76.8707L55.7574 70.2809L45.5573 75.2009Z" fill="#D7C1B3" stroke="#D7C1B3" stroke-linecap="round" stroke-linejoin="round"/>
<path d="M55.2158 59.129L46.7308 56.6541L52.7184 53.9407L55.2158 59.129Z" fill="#233447" stroke="#233447" stroke-linecap="round" stroke-linejoin="round"/>
<path d="M67.522 59.129L70.0194 53.9407L76.0371 56.6541L67.522 59.129Z" fill="#233447" stroke="#233447" stroke-linecap="round" stroke-linejoin="round"/>
<path d="M45.5573 75.2009L47.0317 63.0948L37.6139 63.3632L45.5573 75.2009Z" fill="#CD6116" stroke="#CD6116" stroke-linecap="round" stroke-linejoin="round"/>
<path d="M75.7061 63.0948L77.1804 75.2009L85.1539 63.3632L75.7061 63.0948Z" fill="#CD6116" stroke="#CD6116" stroke-linecap="round" stroke-linejoin="round"/>
<path d="M82.8672 49.7662L65.9574 50.5116L67.522 59.129L70.0193 53.9407L76.0371 56.6541L82.8672 49.7662Z" fill="#CD6116" stroke="#CD6116" stroke-linecap="round" stroke-linejoin="round"/>
<path d="M46.7308 56.6541L52.7184 53.9407L55.2158 59.129L56.7804 50.5116L39.8706 49.7662L46.7308 56.6541Z" fill="#CD6116" stroke="#CD6116" stroke-linecap="round" stroke-linejoin="round"/>
<path d="M39.8706 49.7662L46.9715 63.4824L46.7308 56.6541L39.8706 49.7662Z" fill="#E4751F" stroke="#E4751F" stroke-linecap="round" stroke-linejoin="round"/>
<path d="M76.0371 56.6541L75.7663 63.4824L82.8672 49.7662L76.0371 56.6541Z" fill="#E4751F" stroke="#E4751F" stroke-linecap="round" stroke-linejoin="round"/>
<path d="M56.7804 50.5116L55.2158 59.129L57.2016 69.2969L57.6229 55.9087L56.7804 50.5116Z" fill="#E4751F" stroke="#E4751F" stroke-linecap="round" stroke-linejoin="round"/>
<path d="M65.9574 50.5116L65.145 55.8788L65.5361 69.2969L67.522 59.129L65.9574 50.5116Z" fill="#E4751F" stroke="#E4751F" stroke-linecap="round" stroke-linejoin="round"/>
<path d="M67.522 59.129L65.5362 69.2969L66.9804 70.2809L75.7663 63.4824L76.0371 56.6541L67.522 59.129Z" fill="#F6851B" stroke="#F6851B" stroke-linecap="round" stroke-linejoin="round"/>
<path d="M46.7308 56.6541L46.9715 63.4824L55.7574 70.2809L57.2016 69.2969L55.2158 59.129L46.7308 56.6541Z" fill="#F6851B" stroke="#F6851B" stroke-linecap="round" stroke-linejoin="round"/>
<path d="M67.7025 79.6437L67.7928 76.8707L67.0406 76.2147H55.6972L54.9751 76.8707L55.0352 79.6437L45.5573 75.2009L48.8671 77.8845L55.6069 82.5063H67.1308L73.8707 77.8845L77.1804 75.2009L67.7025 79.6437Z" fill="#C0AD9E" stroke="#C0AD9E" stroke-linecap="round" stroke-linejoin="round"/>
<path d="M66.9804 70.2809L65.5361 69.2969H57.2016L55.7574 70.2809L54.9751 76.8707L55.6972 76.2147H67.0406L67.7928 76.8707L66.9804 70.2809Z" fill="#161616" stroke="#161616" stroke-linecap="round" stroke-linejoin="round"/>
<path d="M97.1894 35.4834L99.7469 23.3176L95.9557 12.0166L66.9804 33.3066L78.1433 42.6397L93.8796 47.2018L97.3398 43.1764L95.8354 42.1029L98.2425 39.9262L96.4071 38.495L98.8141 36.6761L97.1894 35.4834Z" fill="#763D16" stroke="#763D16" stroke-linecap="round" stroke-linejoin="round"/>
<path d="M23.021 23.3176L25.5785 35.4834L23.9537 36.6761L26.3608 38.495L24.5254 39.9262L26.9325 42.1029L25.4281 43.1764L28.8883 47.2018L44.6246 42.6397L55.7574 33.3066L26.8121 12.0166L23.021 23.3176Z" fill="#763D16" stroke="#763D16" stroke-linecap="round" stroke-linejoin="round"/>
<path d="M93.8796 47.2018L78.1433 42.6397L82.8672 49.7662L75.7663 63.4824L85.1539 63.3632H99.1451L93.8796 47.2018Z" fill="#F6851B" stroke="#F6851B" stroke-linecap="round" stroke-linejoin="round"/>
<path d="M44.6246 42.6397L28.8882 47.2018L23.6528 63.3632H37.6139L46.9715 63.4824L39.8706 49.7662L44.6246 42.6397Z" fill="#F6851B" stroke="#F6851B" stroke-linecap="round" stroke-linejoin="round"/>
<path d="M65.9574 50.5116L66.9804 33.3066L71.5238 21.0515H51.214L55.7574 33.3066L56.7804 50.5116L57.1715 55.9385L57.2016 69.2969H65.5361L65.5662 55.9385L65.9574 50.5116Z" fill="#F6851B" stroke="#F6851B" stroke-linecap="round" stroke-linejoin="round"/>
</svg>
