<svg width="50" height="49" viewBox="0 0 50 49" fill="none" xmlns="http://www.w3.org/2000/svg">
<rect opacity="0.1" width="49.0655" height="48.6316" rx="4" fill="white"/>
<g clip-path="url(#clip0_842_21)">
<path fill-rule="evenodd" clip-rule="evenodd" d="M24.7186 11C17.1963 11 11.0981 17.0442 11.0981 24.5C11.0981 31.9558 17.1963 38 24.7186 38C32.2409 38 38.3391 31.9558 38.3391 24.5C38.3391 17.0442 32.2409 11 24.7186 11ZM31.032 20.18C30.8268 22.3157 29.9401 27.497 29.4888 29.887C29.2981 30.8985 28.9219 31.237 28.5579 31.2711C27.768 31.3432 27.1665 30.7529 26.4002 30.2551C25.2016 29.4764 24.5244 28.9915 23.3606 28.2314C22.0158 27.3531 22.8877 26.8703 23.654 26.0814C23.8545 25.8748 27.3397 22.7334 27.407 22.448C27.4155 22.4124 27.4234 22.2795 27.3435 22.2093C27.2637 22.1391 27.1466 22.1632 27.0616 22.1823C26.9414 22.2093 25.0263 23.4639 21.3165 25.9461C20.7728 26.316 20.2804 26.496 19.8395 26.4861C19.353 26.4756 18.4175 26.2134 17.722 25.9893C16.8691 25.7145 16.1911 25.5692 16.251 25.1026C16.2817 24.8595 16.6195 24.6108 17.2644 24.3566C21.235 22.6427 23.8825 21.5125 25.2068 20.9662C28.9892 19.407 29.7753 19.1359 30.2875 19.127C30.4002 19.1251 30.6522 19.154 30.8154 19.2841C30.953 19.3948 30.9911 19.5447 31.0091 19.6497C31.0367 19.8251 31.0444 20.0029 31.032 20.18Z" fill="white"/>
</g>
<defs>
<clipPath id="clip0_842_21">
<rect width="27.2409" height="27" fill="white" transform="translate(11.0981 11)"/>
</clipPath>
</defs>
</svg>
