<svg width="505" height="112" viewBox="0 0 505 112" fill="none" xmlns="http://www.w3.org/2000/svg">
<path d="M182.994 94.3704C174.068 94.3704 164.229 91.3477 153.475 85.3024V72.2275C163.596 79.0461 173.471 82.4554 183.1 82.4554C187.527 82.4554 191.042 81.647 193.642 80.0303C196.313 78.3432 197.648 76.0235 197.648 73.0711C197.648 70.3999 196.418 68.291 193.958 66.7446C191.498 65.1278 187.703 63.6867 182.573 62.4214C173.365 60.0314 167.11 57.9929 163.807 56.3058C156.497 52.5802 152.843 46.9917 152.843 39.5405C152.843 33.1437 155.549 28.0825 160.96 24.3568C166.372 20.6312 173.049 18.7684 180.991 18.7684C190.69 18.7684 199.44 21.5802 207.242 27.2038V40.2786C198.316 33.8115 189.566 30.5779 180.991 30.5779C176.493 30.5779 172.768 31.4215 169.816 33.1085C166.864 34.7956 165.388 37.1505 165.388 40.1732C165.388 42.0008 166.232 43.5824 167.918 44.918C169.605 46.1834 171.433 47.1675 173.401 47.8704C175.439 48.5031 178.461 49.3115 182.467 50.2956C186.684 51.35 190.163 52.3693 192.904 53.3534C195.715 54.3375 198.562 55.7083 201.444 57.4657C204.325 59.1527 206.469 61.2967 207.874 63.8976C209.35 66.4985 210.088 69.5915 210.088 73.1765C210.088 79.8545 207.523 85.0563 202.392 88.7819C197.332 92.5076 190.866 94.3704 182.994 94.3704Z" fill="#F7F6FF"/>
<path d="M235.471 94.3704C233.011 94.3704 230.621 94.0892 228.302 93.5268C226.053 92.9645 223.874 92.0858 221.766 90.8908C219.657 89.6255 217.935 87.833 216.6 85.5132C215.265 83.1232 214.597 80.3466 214.597 77.1833C214.527 71.4894 216.495 67.1663 220.501 64.2139C224.507 61.1913 230.235 59.6799 237.685 59.6799H254.658V56.3058C254.658 53.2128 253.393 50.8931 250.863 49.3466C248.333 47.7298 245.065 46.9214 241.058 46.9214C233.398 46.9214 228.935 49.4521 227.67 54.5133L216.073 54.7242C216.213 49.1709 218.638 44.7775 223.347 41.5439C228.126 38.3103 233.96 36.6936 240.848 36.6936C247.806 36.6936 253.745 38.3806 258.664 41.7548C263.655 45.1289 266.15 49.4872 266.15 54.8296V93.5268H254.658V85.0915C253.042 87.3409 250.582 89.4498 247.279 91.418C244.046 93.3863 240.11 94.3704 235.471 94.3704ZM236.42 84.3534C241.058 84.3534 245.24 82.7718 248.965 79.6085C252.761 76.4452 254.658 72.7196 254.658 68.4316H239.793C235.225 68.4316 231.816 69.3103 229.567 71.0677C227.388 72.7548 226.44 74.8987 226.721 77.4996C226.932 79.8897 227.986 81.647 229.883 82.7718C231.781 83.8262 233.96 84.3534 236.42 84.3534Z" fill="#F7F6FF"/>
<path d="M275.424 93.5268L275.213 48.0813V37.6425V35.7446C275.213 29.0666 277.954 24.0405 283.436 20.6664C288.918 17.2922 296.157 16.7299 305.153 18.9793L305.048 28.2582C299.214 26.7117 294.787 26.7117 291.764 28.2582C288.813 29.7344 287.337 32.265 287.337 35.85V37.6425H304.626V48.0813H287.337L287.442 93.5268H275.424Z" fill="#F7F6FF"/>
<path d="M336.501 94.3704C328.489 94.3704 321.706 91.5586 316.154 85.935C310.602 80.2411 307.825 73.4226 307.825 65.4793C307.825 57.4657 310.637 50.6822 316.259 45.1289C321.882 39.5054 328.629 36.6936 336.501 36.6936C343.459 36.6936 349.574 38.9781 354.845 43.5473C360.186 48.0462 363.455 53.7049 364.649 60.5235C365.352 63.8273 365.387 66.9906 364.755 70.0133H319.844C320.547 74.1607 322.444 77.4645 325.537 79.9248C328.629 82.3148 332.284 83.5098 336.501 83.5098C342.967 83.5098 348.133 81.2253 351.998 76.6561H362.875C362.875 76.6561 361.617 84.0439 351.998 90.3636C347.079 93.0348 341.913 94.3704 336.501 94.3704ZM319.844 60.6289H352.842C352.139 56.9033 350.276 53.7752 347.254 51.2446C344.302 48.714 340.683 47.4487 336.396 47.4487C332.108 47.4487 328.454 48.7491 325.431 51.35C322.409 53.8806 320.547 56.9736 319.844 60.6289Z" fill="#F7F6FF"/>
<path d="M452.793 94.3704C450.333 94.3704 447.944 94.0892 445.624 93.5268C443.375 92.9645 441.196 92.0858 439.088 90.8908C436.979 89.6255 435.257 87.833 433.922 85.5132C432.587 83.1232 431.919 80.3466 431.919 77.1833C431.849 71.4894 433.817 67.1663 437.823 64.2139C441.829 61.1913 447.557 59.6799 455.007 59.6799H471.98V56.3058C471.98 53.2128 470.715 50.8931 468.185 49.3466C465.655 47.7298 462.387 46.9214 458.381 46.9214C450.72 46.9214 446.257 49.4521 444.992 54.5133L433.395 54.7242C433.536 49.1709 435.96 44.7775 440.669 41.5439C445.448 38.3103 451.282 36.6936 458.17 36.6936C465.128 36.6936 471.067 38.3806 475.986 41.7548C480.977 45.1289 483.472 49.4872 483.472 54.8296V93.5268H471.98V85.0915C470.364 87.3409 467.904 89.4498 464.601 91.418C461.368 93.3863 457.432 94.3704 452.793 94.3704ZM453.742 84.3534C458.381 84.3534 462.562 82.7718 466.287 79.6085C470.083 76.4452 471.98 72.7196 471.98 68.4316H457.115C452.547 68.4316 449.138 69.3103 446.889 71.0677C444.71 72.7548 443.762 74.8987 444.043 77.4996C444.254 79.8897 445.308 81.647 447.206 82.7718C449.103 83.8262 451.282 84.3534 453.742 84.3534Z" fill="#F7F6FF"/>
<path d="M492.275 93.5268V20.6664H504.398V93.5268H492.275Z" fill="#F7F6FF"/>
<path fill-rule="evenodd" clip-rule="evenodd" d="M371.801 20.6664H403.85C410.948 20.6664 416.852 23.0915 421.561 27.9419C426.27 32.7219 428.624 38.5212 428.624 45.3398C428.624 52.2287 426.27 58.028 421.561 62.7378C416.922 67.3772 411.019 69.7321 403.85 69.8024L384.346 69.9078V93.5268H371.801V20.6664ZM403.006 58.5201L384.346 58.6255V32.0541L403.006 31.9487C407.153 31.9487 410.421 33.1788 412.811 35.6391C415.271 38.0995 416.501 41.1924 416.501 44.918C416.501 48.714 415.271 51.9475 412.811 54.6187C410.351 57.2196 407.083 58.5201 403.006 58.5201Z" fill="#F7F6FF"/>
<path d="M49.4988 0C46.0901 -3.15499e-07 42.821 1.35413 40.4107 3.76448L2.54945 41.6265C1.11542 43.0605 0.398426 44.9401 0.398438 46.8196C0.398449 48.6992 1.11547 50.5787 2.54949 52.0128L27.3612 76.8245V32.8987C27.3612 29.6206 29.9977 26.9632 33.2758 26.9632C47.1252 26.9632 80.8365 26.9632 85.4347 26.9632L112.397 0.000382123L49.4988 0Z" fill="#F7F6FF"/>
<path d="M27.3621 85.0368H79.5002C82.7783 85.0368 85.4357 82.3793 85.4357 79.1012V35.1753L110.247 59.9872C111.681 61.4212 112.398 63.3008 112.398 65.1803C112.398 67.0599 111.681 68.9394 110.247 70.3735L72.3861 108.235C69.9758 110.646 66.7067 112 63.298 112L0.399414 112L27.3621 85.0368Z" fill="#F7F6FF"/>
</svg>
