<svg width="546" height="85" viewBox="0 0 546 85" fill="none" xmlns="http://www.w3.org/2000/svg">
<g clip-path="url(#clip0_101_297)">
<path d="M141.764 20.1885H156.658V28.482C161.538 21.0284 167.154 20.1885 175.374 20.1885V34.8449H171.631C161.78 34.8449 157.064 39.453 157.064 48.5813V64.1604H141.764V20.1885Z" fill="#48FF91"/>
<path d="M225.069 64.1604H209.772V59.9684C206.431 63.8219 201.879 65.4966 196.266 65.4966C185.607 65.4966 179.58 59.2138 179.58 47.6587V20.1885H194.878V44.2291C194.878 49.6694 197.563 52.8508 202.118 52.8508C206.673 52.8508 209.769 49.7495 209.769 44.4772V20.1885H225.067V64.1604H225.069Z" fill="#48FF91"/>
<path d="M228.808 50.585H243.135C243.788 53.7665 245.985 55.1052 251.27 55.1052C255.586 55.1052 258.108 54.1024 258.108 52.2597C258.108 50.8331 256.886 49.9104 253.392 49.1584L241.835 46.561C234.103 44.8061 230.196 40.366 230.196 33.2433C230.196 23.8591 237.111 19.0029 250.54 19.0029C263.968 19.0029 270.558 23.7351 271.702 33.8739H257.463C257.221 31.1964 254.45 29.5578 249.895 29.5578C246.234 29.5578 243.879 30.7286 243.879 32.4912C243.879 33.9979 245.421 35.1687 248.52 35.9285L260.643 38.8619C268.616 40.7847 272.446 44.8087 272.446 51.3397C272.446 60.3878 264.55 65.748 251.13 65.748C237.709 65.748 228.831 59.9692 228.831 50.585H228.815H228.808Z" fill="#48FF91"/>
<path d="M313.183 33.8654V20.1885H275.423V33.8732H286.691V64.1604H301.911V33.8654H313.183Z" fill="#48FF91"/>
<path d="M137.505 33.8654V20.1885H99.7471V33.8732H111.015V64.1604H126.237V33.8654H137.505Z" fill="#48FF91"/>
<path d="M0.700684 12.4612L38.2554 0.327148V84.3272C11.4302 73.1261 0.700684 51.6596 0.700684 39.5282V12.4612Z" fill="#48FF91"/>
<path d="M75.8135 12.4612L38.2588 0.327148V84.3272C65.0839 73.1261 75.8135 51.6596 75.8135 39.5282V12.4612Z" fill="url(#paint0_linear_101_297)"/>
</g>
<path d="M334.99 63.3271L323.257 20.4181H328.537L337.504 55.3655H337.923L347.058 20.4181H352.925L362.06 55.3655H362.479L371.446 20.4181H376.726L364.993 63.3271H359.629L350.159 29.134H349.824L340.354 63.3271H334.99ZM379.848 63.3271H374.401L390.156 20.4181H395.52L411.276 63.3271H405.828L401.512 51.1752H384.164L379.848 63.3271ZM385.798 46.5658H399.878L393.006 27.2064H392.671L385.798 46.5658ZM416.189 63.3271V20.4181H421.385V58.7178H441.331V63.3271H416.189ZM447.607 63.3271V20.4181H452.803V58.7178H472.749V63.3271H447.607ZM479.024 63.3271V20.4181H504.921V25.0274H484.22V39.526H503.58V44.1354H484.22V58.7178H505.256V63.3271H479.024ZM510.169 25.0274V20.4181H542.351V25.0274H528.858V63.3271H523.662V25.0274H510.169Z" fill="#48FF91"/>
<defs>
<linearGradient id="paint0_linear_101_297" x1="36.6729" y1="94.8846" x2="67.0762" y2="-15.7323" gradientUnits="userSpaceOnUse">
<stop offset="0.26" stop-color="#48FF91"/>
<stop offset="0.66" stop-color="#0094FF"/>
<stop offset="0.8" stop-color="#0038FF"/>
<stop offset="0.89" stop-color="#0500FF"/>
</linearGradient>
<clipPath id="clip0_101_297">
<rect width="312" height="84" fill="white" transform="translate(0 0.327148)"/>
</clipPath>
</defs>
</svg>
